<svg height="612pt" viewBox="-19 -60 612.00212 612" width="612pt" xmlns="http://www.w3.org/2000/svg"><path d="m294.257812 349.273438c.007813-5.230469.300782-10.460938.878907-15.65625h-199.796875c-22.902344-.023438-41.464844-18.582032-41.492188-41.484376v-278.445312c-21.347656 1.96875-37.691406 19.867188-37.71875 41.308594v274.851562c.03125 22.902344 18.585938 41.460938 41.488282 41.492188h238.378906c-1.15625-7.304688-1.738282-14.675782-1.738282-22.066406zm0 0" fill="#d4e1f4"/><path d="m442.289062 55.957031v152.761719c-2.796874-.175781-5.621093-.261719-8.472656-.261719-3.035156 0-6.03125.101563-9.019531.300781v-92.40625h-407.304687v212.734376c.027343 22.765624 18.472656 41.207031 41.230468 41.230468h236.886719c.722656 4.636719 1.683594 9.230469 2.871094 13.769532.328125 1.25.679687 2.5 1.039062 3.722656h-240.796875c-32.417968-.03125-58.6835935-26.304688-58.722656-58.722656v-273.128907c.0351562-32.417969 26.304688-58.6875 58.722656-58.722656h324.84375c32.417969.039063 58.683594 26.304687 58.722656 58.722656zm-17.492187 42.902344v-42.902344c-.027344-22.757812-18.472656-41.203125-41.230469-41.230469h-324.84375c-22.761718.023438-41.207031 18.46875-41.230468 41.230469v42.902344zm0 0" fill="#0635c9"/><g fill="#1ae5be"><path d="m442.289062 208.71875c-2.796874-.175781-5.621093-.261719-8.472656-.261719-3.035156 0-6.03125.101563-9.019531.300781-41.707031 2.765626-80.003906 24.003907-104.441406 57.921876-24.4375 33.914062-32.457031 76.964843-21.875 117.40625.328125 1.25.679687 2.5 1.039062 3.722656 20.003907 68.1875 87.933594 110.554687 157.96875 98.527344 70.035157-12.023438 119.9375-74.625 116.050781-145.578126-3.882812-70.949218-60.320312-127.726562-131.25-132.039062zm-8.472656 262.113281c-55.59375.007813-104.222656-37.4375-118.414062-91.191406-.199219-.777344-.402344-1.546875-.589844-2.339844-8.820312-36.453125-.460938-74.933593 22.6875-104.445312 23.152344-29.507813 58.535156-46.789063 96.042969-46.90625h.273437c67.625 0 122.441406 54.820312 122.441406 122.441406 0 67.625-54.816406 122.441406-122.441406 122.441406zm0 0"/><path d="m433.816406 282.199219c-55.542968 0-98.9375 58.546875-100.761718 61.046875-2.25 3.066406-2.25 7.238281 0 10.308594 1.824218 2.496093 45.21875 61.042968 100.761718 61.042968 55.550782 0 98.957032-58.546875 100.777344-61.042968 2.234375-3.074219 2.234375-7.238282 0-10.308594-1.820312-2.5-45.214844-61.046875-100.777344-61.046875zm0 114.90625c-37.882812 0-71.152344-35.230469-82.496094-48.714844 11.34375-13.480469 44.613282-48.699219 82.496094-48.699219 37.882813 0 71.183594 35.234375 82.515625 48.714844-11.308593 13.476562-44.507812 48.699219-82.515625 48.699219zm0 0"/><path d="m433.816406 304.660156c-24.148437 0-43.730468 19.582032-43.730468 43.730469 0 24.152344 19.582031 43.726563 43.730468 43.726563 24.152344 0 43.730469-19.574219 43.730469-43.726563-.027344-24.140625-19.585937-43.699219-43.730469-43.730469zm0 69.96875c-14.488281 0-26.238281-11.75-26.238281-26.238281 0-14.492187 11.75-26.238281 26.238281-26.238281 14.492188 0 26.238282 11.746094 26.238282 26.238281-.015626 14.484375-11.753907 26.222656-26.238282 26.238281zm0 0"/><path d="m195.859375 81.867188h.074219c13.496094.023437 24.460937-10.902344 24.480468-24.402344.019532-13.503906-10.910156-24.464844-24.410156-24.484375h-.070312c-13.5-.019531-24.460938 10.90625-24.480469 24.40625-.027344 13.5 10.902344 24.460937 24.40625 24.480469zm-4.835937-29.371094c1.296874-1.304688 3.070312-2.03125 4.910156-2.027344h.007812c3.839844.011719 6.945313 3.136719 6.933594 6.976562-.003906 3.140626-2.125 5.894532-5.167969 6.699219-3.042969.804688-6.246093-.53125-7.8125-3.257812-1.566406-2.730469-1.101562-6.171875 1.128907-8.390625zm0 0"/><path d="m149.855469 57.277344c.035156-13.492188-10.867188-24.464844-24.363281-24.523438h-.089844c-13.496094-.019531-24.460938 10.910156-24.484375 24.40625-.019531 13.5 10.910156 24.460938 24.40625 24.480469h.078125c13.46875-.007813 24.394531-10.898437 24.453125-24.363281zm-17.492188-.046875c-.019531 3.832031-3.128906 6.925781-6.960937 6.921875h-.011719c-3.84375 0-6.949219-3.121094-6.945313-6.960938.003907-3.835937 3.117188-6.949218 6.957032-6.945312h.027344c3.839843.007812 6.945312 3.132812 6.933593 6.972656zm0 0"/><path d="m79.335938 57.054688c.039062-13.5-10.871094-24.476563-24.375-24.511719h-.074219c-13.5-.023438-24.460938 10.90625-24.480469 24.410156-.019531 13.5 10.90625 24.460937 24.40625 24.480469h.074219c13.464843-.019532 24.386719-10.914063 24.449219-24.378906zm-24.449219 6.886718h-.023438c-3.835937-.023437-6.933593-3.148437-6.921875-6.984375.003906-3.832031 3.113282-6.929687 6.945313-6.921875h.023437c3.839844.011719 6.945313 3.128906 6.933594 6.96875-.019531 3.832032-3.125 6.925782-6.957031 6.9375zm0 0"/></g></svg>